<svg width="24" height="24" viewBox="0 0 24 24" fill="none" xmlns="http://www.w3.org/2000/svg"><path d="M8.75 21.75H7.5a.75.75 0 0 1-.68-1.06l3.02-6.67-4.54-.1-1.65 2c-.32.4-.57.58-1.21.58H1.6a.83.83 0 0 1-.7-.33.84.84 0 0 1-.1-.77l.92-3.33a.85.85 0 0 1 .03-.08.69.69 0 0 1-.03-.07L.8 8.57c-.1-.36.01-.6.12-.76a.79.79 0 0 1 .64-.31h.89c.48 0 .94.22 1.22.56l1.62 1.97 4.56-.06L6.82 3.3a.75.75 0 0 1 .68-1.06h1.26a1.17 1.17 0 0 1 .9.46l5.87 7.12 2.7-.07.88-.01c2.6 0 4.14.84 4.14 2.25 0 .44-.18 1.27-1.36 1.79-.7.3-1.64.46-2.78.46l-.87-.01-2.71-.07-5.88 7.12a1.17 1.17 0 0 1-.9.46Z" fill="#fff"/></svg>