<svg width="111" height="36" viewBox="0 0 111 36" fill="none" xmlns="http://www.w3.org/2000/svg"><g clip-path="url(#a)"><path d="M14.73 5.58 17.95 8l-1.97 2.5a7.51 7.51 0 0 1 1.86 5.22c0 2.18-.82 5.25-3.72 6.58 2.93 1.46 3.64 3.57 3.64 5.83C17.76 33 14.05 36 8.94 36 3.82 36 0 32.89 0 28.14h4.32c0 2.28 2.11 3.78 4.62 3.78 2.5 0 4.46-1.35 4.46-3.78 0-2.44-2.29-3.55-4.46-3.55-5.5 0-8.94-3.35-8.94-8.86 0-5.5 4-8.94 8.94-8.94 1.4 0 2.82.18 4.04 1l1.75-2.21ZM4.33 15.73c0 3.07 2.07 4.9 4.6 4.9 2.5 0 4.58-1.86 4.58-4.9s-2.07-4.97-4.57-4.97c-2.54 0-4.62 1.9-4.62 4.97ZM50.57 0v24.99h-4.33V0h4.33ZM70 16.2c0 5.07-3.47 9.18-9.19 9.18-5.72 0-9.15-4.1-9.15-9.19 0-5.04 3.5-9.18 9.12-9.18C66.39 7 70 11.15 70 16.19Zm-13.98 0c0 2.67 1.6 5.18 4.79 5.18 3.18 0 4.79-2.5 4.79-5.19 0-2.64-1.86-5.22-4.8-5.22-3.14 0-4.78 2.58-4.78 5.22ZM75.45 0v9.76c1.04-1.82 3.93-2.82 5.8-2.82 5.14 0 8.96 3.14 8.96 9.22 0 5.79-3.9 9.22-9.07 9.22-2.15 0-4.33-.71-5.69-2.82l-.29 2.43H71.1V0h4.36Zm.28 16.16a5 5 0 0 0 5.12 5.18c2.78 0 5-2.1 5-5.18 0-3.18-2.22-5.15-5-5.15a5.03 5.03 0 0 0-5.12 5.15ZM96.7 19.23c1.01 1.95 3.33 2.78 6.22 1.73 1.51-.55 3.29-1.84 3.87-3.16l3.57 1.64c-1.1 2.45-3.63 4.36-6.15 5.28-5.7 2.07-10.39-.22-12.32-5.53-1.83-5.03.27-9.91 5.65-11.87 5.54-2.01 10.25.15 12.1 7.2L96.7 19.23Zm7.77-6.67c-1.05-2.05-3.13-2.51-5.48-1.66-2.22.8-3.64 2.54-3.46 4.91l8.94-3.25Z" fill="#fff"/><path fill-rule="evenodd" clip-rule="evenodd" d="M39.76 11.99c-1.41-2.95-4.36-4.98-8.29-4.98-5.61 0-9.12 4.14-9.12 9.18 0 3.22 1.38 6.05 3.85 7.7l.23-.18a62.4 62.4 0 0 0 3.6-2.53c-2.2-.65-3.32-2.76-3.32-4.99 0-2.64 1.65-5.22 4.8-5.22 2.76 0 4.57 2.3 4.76 4.78a62.21 62.21 0 0 0 3.5-3.76Zm-8.7 13.38a62.34 62.34 0 0 0 9.6-8.4c-.33 4.71-3.73 8.41-9.15 8.41h-.45Z" fill="#8DD3BB"/><path d="M43.32 4.54c-4.46-1.64-7.66 1.88-7.66 1.88L38.7 8.2c1.13-.65 1.64-.02 1.77.33.1.24-.03.51-.13.66l-.74.93c-3.99 4.81-8.68 9-13.91 12.41 0 0-1.58 1.28-2.43 1.3-.7.01-1.02-.59-.42-1.44l-1.47-3.3s-3.81 2.5-3.07 6.88a3.4 3.4 0 0 0 3.9 2.84 9.67 9.67 0 0 0 3.55-1.58l2.63-1.72A62.33 62.33 0 0 0 42.3 13.07l.9-1.1c1.37-1.55 1.98-2.82 2.19-3.83a3.18 3.18 0 0 0-2.07-3.6Z" fill="#8DD3BB"/></g><defs><clipPath id="a"><path fill="#fff" d="M0 0h110.35v36H0z"/></clipPath></defs></svg>