<svg width="32" height="32" viewBox="0 0 32 32" fill="none" xmlns="http://www.w3.org/2000/svg">
<path fill-rule="evenodd" clip-rule="evenodd" d="M25.1986 10.8078C23.5553 7.37922 20.1295 5.01636 15.5596 5.01636C9.03311 5.01636 4.9624 9.8355 4.9624 15.6955C4.9624 19.4367 6.56599 22.7267 9.43425 24.6338C9.59767 24.5115 9.69609 24.4321 9.69609 24.4321C11.1267 23.4986 12.5224 22.516 13.8807 21.4863C11.3217 20.7333 10.0295 18.2848 10.0295 15.6955C10.0295 12.621 11.9445 9.62806 15.5966 9.62806C18.8129 9.62806 20.9172 12.2943 21.1435 15.1787C22.5533 13.7796 23.9062 12.3215 25.1986 10.8078ZM15.0831 26.3649C19.1301 23.4963 22.8721 20.2195 26.2477 16.5887C25.8613 22.0711 21.9101 26.3747 15.6003 26.3747C15.4261 26.3747 15.2536 26.3714 15.0831 26.3649Z" fill="#8DD3BB"/>
<path d="M29.3311 2.14564C24.1529 0.241694 20.4304 4.33852 20.4304 4.33852L23.9603 6.39064C25.2826 5.63128 25.8716 6.36841 26.0234 6.77217C26.1309 7.05739 25.9864 7.36854 25.8716 7.53893L25.0122 8.62426C20.3748 14.2176 14.9225 19.0775 8.83684 23.0483C8.83684 23.0483 6.99965 24.53 6.02179 24.5522C5.1995 24.5708 4.83281 23.8781 5.52546 22.8854L3.82161 19.0404C3.82161 19.0404 -0.612086 21.9445 0.247244 27.0489C0.610237 29.2047 2.63633 30.7382 4.78836 30.3493C5.88845 30.153 7.24782 29.6159 8.91092 28.5157L11.9704 26.5155C18.0561 22.5372 23.5121 17.6625 28.1458 12.0617L29.1978 10.7912C30.7831 8.98727 31.4943 7.50189 31.735 6.32767C32.1054 4.53114 31.0424 2.77535 29.3311 2.14564Z" fill="#8DD3BB"/>
</svg>
